<?xml version="1.0" encoding="UTF-8"?><svg xmlns="http://www.w3.org/2000/svg" xmlns:xlink="http://www.w3.org/1999/xlink" fill-opacity="1" color-rendering="auto" color-interpolation="auto" text-rendering="auto" stroke="black" stroke-linecap="square" width="841" stroke-miterlimit="10" shape-rendering="auto" stroke-opacity="1" fill="black" stroke-dasharray="none" font-weight="normal" stroke-width="1" height="505" font-family="'Dialog'" font-style="normal" stroke-linejoin="miter" font-size="12px" stroke-dashoffset="0" image-rendering="auto">
  <!--Generated by ySVG 2.6-->
  <defs id="genericDefs"/>
  <g>
    <defs id="defs1">
      <clipPath clipPathUnits="userSpaceOnUse" id="clipPath1">
        <path d="M0 0 L841 0 L841 505 L0 505 L0 0 Z"/>
      </clipPath>
      <clipPath clipPathUnits="userSpaceOnUse" id="clipPath2">
        <path d="M114 222 L955 222 L955 727 L114 727 L114 222 Z"/>
      </clipPath>
    </defs>
    <g fill="white" text-rendering="geometricPrecision" shape-rendering="geometricPrecision" transform="translate(-114,-222)" stroke="white">
      <rect x="114" width="841" height="505" y="222" clip-path="url(#clipPath2)" stroke="none"/>
    </g>
    <g stroke-linecap="butt" transform="matrix(1,0,0,1,-114,-222)" text-rendering="geometricPrecision" font-family="sans-serif" shape-rendering="geometricPrecision" font-weight="bold" stroke-miterlimit="1.45">
      <text x="854.8223" xml:space="preserve" y="421.7139" clip-path="url(#clipPath2)" stroke="none">packet_out_if</text>
      <text x="140.8184" xml:space="preserve" y="421.7139" clip-path="url(#clipPath2)" stroke="none">packet_in_if</text>
      <text x="301.4785" y="690.3633" clip-path="url(#clipPath2)" fill="blue" stroke="none" font-weight="normal" xml:space="preserve">event_in_if</text>
      <text x="302.8232" y="705.0645" clip-path="url(#clipPath2)" fill="blue" stroke="none" font-weight="normal" xml:space="preserve">(reporting)</text>
      <text x="711.8076" y="690.3633" clip-path="url(#clipPath2)" fill="blue" stroke="none" font-weight="normal" xml:space="preserve">event_out_if</text>
      <text x="716.8232" y="705.0645" clip-path="url(#clipPath2)" fill="blue" stroke="none" font-weight="normal" xml:space="preserve">(reporting)</text>
    </g>
    <g fill="rgb(245,245,245)" text-rendering="geometricPrecision" shape-rendering="geometricPrecision" transform="matrix(1,0,0,1,-114,-222)" stroke="rgb(245,245,245)">
      <rect x="234" y="237.7988" clip-path="url(#clipPath2)" width="596" rx="4" ry="4" height="405.2012" stroke="none"/>
      <rect x="234" y="237.7988" clip-path="url(#clipPath2)" fill="rgb(235,235,235)" width="596" height="18.7012" stroke="none"/>
    </g>
    <g text-rendering="geometricPrecision" stroke-miterlimit="1.45" shape-rendering="geometricPrecision" font-family="sans-serif" transform="matrix(1,0,0,1,-114,-222)" stroke-linecap="butt">
      <text x="769.9629" xml:space="preserve" y="251.8633" clip-path="url(#clipPath2)" stroke="none">packet_fifo</text>
      <rect x="234" y="237.7988" clip-path="url(#clipPath2)" fill="none" width="596" stroke-dasharray="6,2" rx="4" ry="4" height="405.2012"/>
    </g>
    <g fill="rgb(225,225,225)" text-rendering="geometricPrecision" shape-rendering="geometricPrecision" transform="matrix(1,0,0,1,-114,-222)" stroke="rgb(225,225,225)">
      <rect x="249" y="286.2988" clip-path="url(#clipPath2)" width="566" rx="4" ry="4" height="268.7012" stroke="none"/>
      <rect x="249" y="286.2988" clip-path="url(#clipPath2)" fill="rgb(235,235,235)" width="566" height="18.7012" stroke="none"/>
    </g>
    <g text-rendering="geometricPrecision" stroke-miterlimit="1.45" shape-rendering="geometricPrecision" font-family="sans-serif" transform="matrix(1,0,0,1,-114,-222)" stroke-linecap="butt">
      <text x="724.9453" xml:space="preserve" y="300.3633" clip-path="url(#clipPath2)" stroke="none">packet_fifo_core</text>
      <rect x="249" y="286.2988" clip-path="url(#clipPath2)" fill="none" width="566" stroke-dasharray="6,2" rx="4" ry="4" height="268.7012"/>
    </g>
    <g fill="rgb(153,204,255)" text-rendering="geometricPrecision" shape-rendering="geometricPrecision" transform="matrix(1,0,0,1,-114,-222)" stroke="rgb(153,204,255)">
      <rect x="284" width="93" height="194" y="320" clip-path="url(#clipPath2)" stroke="none"/>
    </g>
    <g text-rendering="geometricPrecision" stroke-miterlimit="1.45" shape-rendering="geometricPrecision" transform="matrix(1,0,0,1,-114,-222)" stroke-linecap="butt">
      <rect fill="none" x="284" width="93" height="194" y="320" clip-path="url(#clipPath2)"/>
      <text x="312.1572" xml:space="preserve" y="414.3633" clip-path="url(#clipPath2)" font-family="sans-serif" stroke="none">Packet</text>
      <text x="306.4766" xml:space="preserve" y="429.0645" clip-path="url(#clipPath2)" font-family="sans-serif" stroke="none">Enqueue</text>
    </g>
    <g fill="rgb(153,204,255)" text-rendering="geometricPrecision" shape-rendering="geometricPrecision" transform="matrix(1,0,0,1,-114,-222)" stroke="rgb(153,204,255)">
      <rect x="698" width="93" height="194" y="320" clip-path="url(#clipPath2)" stroke="none"/>
    </g>
    <g text-rendering="geometricPrecision" stroke-miterlimit="1.45" shape-rendering="geometricPrecision" transform="matrix(1,0,0,1,-114,-222)" stroke-linecap="butt">
      <rect fill="none" x="698" width="93" height="194" y="320" clip-path="url(#clipPath2)"/>
      <text x="726.1572" xml:space="preserve" y="414.3633" clip-path="url(#clipPath2)" font-family="sans-serif" stroke="none">Packet</text>
      <text x="720.1455" xml:space="preserve" y="429.0645" clip-path="url(#clipPath2)" font-family="sans-serif" stroke="none">Dequeue</text>
    </g>
    <g fill="rgb(153,204,255)" text-rendering="geometricPrecision" shape-rendering="geometricPrecision" transform="matrix(1,0,0,1,-114,-222)" stroke="rgb(153,204,255)">
      <rect x="486" width="93" height="64" y="334" clip-path="url(#clipPath2)" stroke="none"/>
    </g>
    <g text-rendering="geometricPrecision" stroke-miterlimit="1.45" shape-rendering="geometricPrecision" transform="matrix(1,0,0,1,-114,-222)" stroke-linecap="butt">
      <rect fill="none" x="486" width="93" height="64" y="334" clip-path="url(#clipPath2)"/>
      <text x="505.1602" xml:space="preserve" y="363.3633" clip-path="url(#clipPath2)" font-family="sans-serif" stroke="none">Descriptor</text>
      <text x="518.8359" xml:space="preserve" y="378.0645" clip-path="url(#clipPath2)" font-family="sans-serif" stroke="none">FIFO</text>
      <text x="540.4893" y="421.7139" clip-path="url(#clipPath2)" font-family="sans-serif" font-style="italic" stroke="none" xml:space="preserve">clk_out</text>
      <text x="489.1602" y="421.7139" clip-path="url(#clipPath2)" font-family="sans-serif" font-style="italic" stroke="none" xml:space="preserve">clk_in</text>
    </g>
    <g fill="rgb(153,204,255)" text-rendering="geometricPrecision" shape-rendering="geometricPrecision" transform="matrix(1,0,0,1,-114,-222)" stroke="rgb(153,204,255)">
      <rect x="436.75" width="202" height="38" y="585" clip-path="url(#clipPath2)" stroke="none"/>
    </g>
    <g text-rendering="geometricPrecision" stroke-miterlimit="1.45" shape-rendering="geometricPrecision" transform="matrix(1,0,0,1,-114,-222)" stroke-linecap="butt">
      <rect fill="none" x="436.75" width="202" height="38" y="585" clip-path="url(#clipPath2)"/>
      <text x="506.417" xml:space="preserve" y="608.7139" clip-path="url(#clipPath2)" font-family="sans-serif" stroke="none">RAM (SDP)</text>
      <path fill="none" d="M222 417 L274.9697 417" stroke-width="2" clip-path="url(#clipPath2)"/>
      <path d="M283.9697 417 L270.4697 411.375 L273.8447 417 L270.4697 422.625 Z" stroke-width="2" clip-path="url(#clipPath2)" stroke="none"/>
      <path fill="none" stroke-dasharray="6,2" d="M330.5 514 L330.5 665.9609" clip-path="url(#clipPath2)" stroke="blue"/>
      <path fill="blue" stroke-dasharray="6,2" d="M330.5 673.9609 L335.5 661.9609 L330.5 664.9609 L325.5 661.9609 Z" clip-path="url(#clipPath2)" stroke="none"/>
      <path fill="none" d="M791 417 L837.9727 417" stroke-width="2" clip-path="url(#clipPath2)"/>
      <path d="M846.9727 417 L833.4727 411.375 L836.8477 417 L833.4727 422.625 Z" stroke-width="2" clip-path="url(#clipPath2)" stroke="none"/>
      <path fill="none" stroke-dasharray="6,2" d="M744.5 514 L744.5 665.9609" clip-path="url(#clipPath2)" stroke="blue"/>
      <path fill="blue" stroke-dasharray="6,2" d="M744.5 673.9609 L749.5 661.9609 L744.5 664.9609 L739.5 661.9609 Z" clip-path="url(#clipPath2)" stroke="none"/>
      <path fill="none" stroke-dasharray="12,4" d="M376.9875 366 L476.9734 366" stroke-width="2" clip-path="url(#clipPath2)"/>
      <path stroke-dasharray="12,4" d="M485.9734 366 L472.4734 360.375 L475.8484 366 L472.4734 371.625 Z" stroke-width="2" clip-path="url(#clipPath2)" stroke="none"/>
      <text x="390.8125" xml:space="preserve" y="359.3633" clip-path="url(#clipPath2)" font-family="sans-serif" stroke="none">descriptor_in_if</text>
      <path fill="none" stroke-dasharray="12,4" d="M579 366 L689.0111 366" stroke-width="2" clip-path="url(#clipPath2)"/>
      <path stroke-dasharray="12,4" d="M698.0111 366 L684.5111 360.375 L687.8861 366 L684.5111 371.625 Z" stroke-width="2" clip-path="url(#clipPath2)" stroke="none"/>
      <text x="594.1416" xml:space="preserve" y="359.3633" clip-path="url(#clipPath2)" font-family="sans-serif" stroke="none">descriptor_out_if</text>
      <path fill="none" d="M377 457.0459 L506.9307 457.0459 L506.9307 575.9912" stroke-width="2" clip-path="url(#clipPath2)"/>
      <path d="M506.9307 584.9912 L512.5557 571.4912 L506.9307 574.8662 L501.3057 571.4912 Z" stroke-width="2" clip-path="url(#clipPath2)" stroke="none"/>
      <text x="417.1899" xml:space="preserve" y="450.4091" clip-path="url(#clipPath2)" font-family="sans-serif" stroke="none">mem_wr_if</text>
      <path fill="none" d="M688.9666 457.0459 L560.875 457.0459 L560.875 575.9922" stroke-width="2" clip-path="url(#clipPath2)"/>
      <path d="M697.9666 457.0459 L684.4666 451.4209 L687.8416 457.0459 L684.4666 462.6709 Z" stroke-width="2" clip-path="url(#clipPath2)" stroke="none"/>
      <path d="M560.875 584.9922 L566.5 571.4922 L560.875 574.8672 L555.25 571.4922 Z" stroke-width="2" clip-path="url(#clipPath2)" stroke="none"/>
      <text x="596.5332" xml:space="preserve" y="451.4091" clip-path="url(#clipPath2)" font-family="sans-serif" stroke="none">mem_rd_if</text>
      <path fill="none" stroke-dasharray="6,2" d="M532.5 398 L532.5 585.0144" clip-path="url(#clipPath2)"/>
      <path fill="none" stroke-dasharray="6,2" d="M532.5 274 L532.5 334" clip-path="url(#clipPath2)"/>
    </g>
  </g>
</svg>
