<?xml version="1.0" encoding="UTF-8"?><svg xmlns="http://www.w3.org/2000/svg" xmlns:xlink="http://www.w3.org/1999/xlink" fill-opacity="1" color-rendering="auto" color-interpolation="auto" text-rendering="auto" stroke="black" stroke-linecap="square" width="1257" stroke-miterlimit="10" shape-rendering="auto" stroke-opacity="1" fill="black" stroke-dasharray="none" font-weight="normal" stroke-width="1" height="390" font-family="'Dialog'" font-style="normal" stroke-linejoin="miter" font-size="12px" stroke-dashoffset="0" image-rendering="auto">
  <!--Generated by ySVG 2.6-->
  <defs id="genericDefs"/>
  <g>
    <defs id="defs1">
      <clipPath clipPathUnits="userSpaceOnUse" id="clipPath1">
        <path d="M0 0 L1257 0 L1257 390 L0 390 L0 0 Z"/>
      </clipPath>
      <clipPath clipPathUnits="userSpaceOnUse" id="clipPath2">
        <path d="M23 264 L1280 264 L1280 654 L23 654 L23 264 Z"/>
      </clipPath>
    </defs>
    <g fill="white" text-rendering="geometricPrecision" shape-rendering="geometricPrecision" transform="translate(-23,-264)" stroke="white">
      <rect x="23" width="1257" height="390" y="264" clip-path="url(#clipPath2)" stroke="none"/>
    </g>
    <g stroke-linecap="butt" transform="matrix(1,0,0,1,-23,-264)" text-rendering="geometricPrecision" font-family="sans-serif" shape-rendering="geometricPrecision" font-weight="bold" stroke-miterlimit="1.45">
      <text x="45.6122" xml:space="preserve" y="421.1543" clip-path="url(#clipPath2)" stroke="none">packet_in_if</text>
      <text x="619.1835" xml:space="preserve" y="624.1543" clip-path="url(#clipPath2)" font-weight="normal" stroke="none">mem_wr_if</text>
      <text x="815.9072" xml:space="preserve" y="624.1543" clip-path="url(#clipPath2)" font-weight="normal" stroke="none">mem_rd_if</text>
      <text x="471.6298" y="617.1699" clip-path="url(#clipPath2)" fill="blue" stroke="none" font-weight="normal" xml:space="preserve">event_in_if</text>
      <text x="471.5507" y="631.1387" clip-path="url(#clipPath2)" fill="blue" stroke="none" font-weight="normal" xml:space="preserve">(reporting)</text>
      <text x="972.2734" y="617.1699" clip-path="url(#clipPath2)" fill="blue" stroke="none" font-weight="normal" xml:space="preserve">event_out_if</text>
      <text x="976.5507" y="631.1387" clip-path="url(#clipPath2)" fill="blue" stroke="none" font-weight="normal" xml:space="preserve">(reporting)</text>
    </g>
    <g fill="rgb(153,204,255)" text-rendering="geometricPrecision" shape-rendering="geometricPrecision" transform="matrix(1,0,0,1,-23,-264)" stroke="rgb(153,204,255)">
      <rect x="179.8788" width="78.7273" height="77.9797" y="378.0101" clip-path="url(#clipPath2)" stroke="none"/>
    </g>
    <g text-rendering="geometricPrecision" stroke-miterlimit="1.45" shape-rendering="geometricPrecision" transform="matrix(1,0,0,1,-23,-264)" stroke-linecap="butt">
      <rect fill="none" x="179.8788" width="78.7273" height="77.9797" y="378.0101" clip-path="url(#clipPath2)"/>
      <text x="191.8529" xml:space="preserve" y="414.1699" clip-path="url(#clipPath2)" font-family="sans-serif" stroke="none">Classifier</text>
      <text x="193.9036" xml:space="preserve" y="428.1387" clip-path="url(#clipPath2)" font-family="sans-serif" stroke="none">(e.g. P4)</text>
      <ellipse clip-path="url(#clipPath2)" fill="none" rx="15" stroke-dasharray="6,2" cx="295.4111" ry="44" cy="417"/>
      <text x="247.042" y="364.1699" clip-path="url(#clipPath2)" font-family="sans-serif" stroke="none" font-weight="bold" xml:space="preserve">fragment_in_if</text>
      <ellipse clip-path="url(#clipPath2)" fill="none" rx="15" stroke-dasharray="6,2" cx="1202.8223" ry="44" cy="408"/>
      <text x="1160.9541" y="355.1699" clip-path="url(#clipPath2)" font-family="sans-serif" stroke="none" font-weight="bold" xml:space="preserve">frame_out_if</text>
      <path fill="none" d="M131.9354 417 L170.832 417" stroke-width="2" clip-path="url(#clipPath2)"/>
      <path d="M179.832 417 L166.332 411.375 L169.707 417 L166.332 422.625 Z" stroke-width="2" clip-path="url(#clipPath2)" stroke="none"/>
    </g>
    <g fill="rgb(245,245,245)" text-rendering="geometricPrecision" shape-rendering="geometricPrecision" transform="matrix(1,0,0,1,-23,-264)" stroke="rgb(245,245,245)">
      <rect x="419.4677" y="279.0312" clip-path="url(#clipPath2)" width="651" rx="4" ry="4" height="276.9688" stroke="none"/>
      <rect x="419.4677" y="279.0312" clip-path="url(#clipPath2)" fill="rgb(235,235,235)" width="651" height="17.9688" stroke="none"/>
    </g>
    <g text-rendering="geometricPrecision" stroke-miterlimit="1.45" shape-rendering="geometricPrecision" font-family="sans-serif" transform="matrix(1,0,0,1,-23,-264)" stroke-linecap="butt">
      <text x="927.9775" xml:space="preserve" y="292.1699" clip-path="url(#clipPath2)" stroke="none">Scatter-Gather (sar_sg)</text>
      <rect x="419.4677" y="279.0312" clip-path="url(#clipPath2)" fill="none" width="651" stroke-dasharray="6,2" rx="4" ry="4" height="276.9688"/>
    </g>
    <g fill="rgb(153,204,255)" text-rendering="geometricPrecision" shape-rendering="geometricPrecision" transform="matrix(1,0,0,1,-23,-264)" stroke="rgb(153,204,255)">
      <rect x="457.4677" width="93" height="194" y="320" clip-path="url(#clipPath2)" stroke="none"/>
    </g>
    <g text-rendering="geometricPrecision" stroke-miterlimit="1.45" shape-rendering="geometricPrecision" transform="matrix(1,0,0,1,-23,-264)" stroke-linecap="butt">
      <rect fill="none" x="457.4677" width="93" height="194" y="320" clip-path="url(#clipPath2)"/>
      <text x="483.8554" xml:space="preserve" y="414.1699" clip-path="url(#clipPath2)" font-family="sans-serif" stroke="none">Packet</text>
      <text x="477.5771" xml:space="preserve" y="428.1387" clip-path="url(#clipPath2)" font-family="sans-serif" stroke="none">Enqueue</text>
    </g>
    <g fill="rgb(153,204,255)" text-rendering="geometricPrecision" shape-rendering="geometricPrecision" transform="matrix(1,0,0,1,-23,-264)" stroke="rgb(153,204,255)">
      <rect x="962.4677" width="93" height="194" y="320" clip-path="url(#clipPath2)" stroke="none"/>
    </g>
    <g text-rendering="geometricPrecision" stroke-miterlimit="1.45" shape-rendering="geometricPrecision" transform="matrix(1,0,0,1,-23,-264)" stroke-linecap="butt">
      <rect fill="none" x="962.4677" width="93" height="194" y="320" clip-path="url(#clipPath2)"/>
      <text x="988.8554" xml:space="preserve" y="414.1699" clip-path="url(#clipPath2)" font-family="sans-serif" stroke="none">Packet</text>
      <text x="981.8593" xml:space="preserve" y="428.1387" clip-path="url(#clipPath2)" font-family="sans-serif" stroke="none">Dequeue</text>
      <text x="706.1201" y="475.8037" clip-path="url(#clipPath2)" font-family="sans-serif" font-style="italic" stroke="none" xml:space="preserve">clk_in</text>
    </g>
    <g fill="rgb(153,204,255)" text-rendering="geometricPrecision" shape-rendering="geometricPrecision" transform="matrix(1,0,0,1,-23,-264)" stroke="rgb(153,204,255)">
      <rect x="703.5302" width="93" height="64" y="385" clip-path="url(#clipPath2)" stroke="none"/>
    </g>
    <g text-rendering="geometricPrecision" stroke-miterlimit="1.45" shape-rendering="geometricPrecision" transform="matrix(1,0,0,1,-23,-264)" stroke-linecap="butt">
      <rect fill="none" x="703.5302" width="93" height="64" y="385" clip-path="url(#clipPath2)"/>
      <text x="718.8613" xml:space="preserve" y="414.1699" clip-path="url(#clipPath2)" font-family="sans-serif" stroke="none">Descriptor</text>
      <text x="725.6288" xml:space="preserve" y="428.1387" clip-path="url(#clipPath2)" font-family="sans-serif" stroke="none">Memory</text>
      <text x="756.7636" y="475.8037" clip-path="url(#clipPath2)" font-family="sans-serif" font-style="italic" stroke="none" xml:space="preserve">clk_out</text>
    </g>
    <g fill="rgb(153,204,255)" text-rendering="geometricPrecision" shape-rendering="geometricPrecision" transform="matrix(1,0,0,1,-23,-264)" stroke="rgb(153,204,255)">
      <rect x="703.5302" width="93" height="64" y="321" clip-path="url(#clipPath2)" stroke="none"/>
    </g>
    <g text-rendering="geometricPrecision" stroke-miterlimit="1.45" shape-rendering="geometricPrecision" transform="matrix(1,0,0,1,-23,-264)" stroke-linecap="butt">
      <rect fill="none" x="703.5302" width="93" height="64" y="321" clip-path="url(#clipPath2)"/>
      <text x="705.5781" xml:space="preserve" y="350.1699" clip-path="url(#clipPath2)" font-family="sans-serif" stroke="none">Scatter-Gather</text>
      <text x="737.5937" xml:space="preserve" y="364.1387" clip-path="url(#clipPath2)" font-family="sans-serif" stroke="none">FSM</text>
      <path fill="none" d="M258.6062 434.9949 L449.4192 434.9949" clip-path="url(#clipPath2)"/>
      <path d="M457.4192 434.9949 L445.4192 429.9949 L448.4192 434.9949 L445.4192 439.9949 Z" clip-path="url(#clipPath2)" stroke="none"/>
      <rect x="320.0555" y="427.1746" clip-path="url(#clipPath2)" fill="white" width="75.9629" height="15.6406" stroke="none"/>
      <text x="322.0555" font-size="10px" y="438.4568" clip-path="url(#clipPath2)" font-family="sans-serif" stroke="none" xml:space="preserve">fragment data</text>
      <path fill="none" d="M258.6062 399.0051 L449.4192 399.0051" clip-path="url(#clipPath2)"/>
      <path d="M457.4192 399.0051 L445.4192 394.0051 L448.4192 399.0051 L445.4192 404.0051 Z" clip-path="url(#clipPath2)" stroke="none"/>
      <rect x="312.3846" y="391.1848" clip-path="url(#clipPath2)" fill="white" width="91.3047" height="15.6406" stroke="none"/>
      <text x="314.3846" font-size="10px" y="402.467" clip-path="url(#clipPath2)" font-family="sans-serif" stroke="none" xml:space="preserve">fragment context</text>
      <path fill="none" d="M550.4677 483.8247 L651.7177 483.8247 L651.7177 591.9714" stroke-width="2" clip-path="url(#clipPath2)"/>
      <path d="M651.7177 600.9714 L657.3427 587.4714 L651.7177 590.8464 L646.0927 587.4714 Z" stroke-width="2" clip-path="url(#clipPath2)" stroke="none"/>
      <rect x="560.5927" y="476.0044" clip-path="url(#clipPath2)" fill="white" width="75.9629" height="15.6406" stroke="none" stroke-width="2"/>
      <text x="562.5927" font-size="10px" y="487.2866" clip-path="url(#clipPath2)" font-family="sans-serif" stroke="none" xml:space="preserve">fragment data</text>
      <path fill="none" stroke-dasharray="6,2" d="M503.9677 514 L503.9677 592.9575" clip-path="url(#clipPath2)" stroke="blue"/>
      <path fill="blue" stroke-dasharray="6,2" d="M503.9677 600.9575 L508.9677 588.9575 L503.9677 591.9575 L498.9677 588.9575 Z" clip-path="url(#clipPath2)" stroke="none"/>
      <path fill="none" d="M953.4396 480 L847.3427 480 L847.3427 591.9705" stroke-width="2" clip-path="url(#clipPath2)"/>
      <path d="M962.4396 480 L948.9396 474.375 L952.3146 480 L948.9396 485.625 Z" stroke-width="2" clip-path="url(#clipPath2)" stroke="none"/>
      <path d="M847.3427 600.9705 L852.9677 587.4705 L847.3427 590.8455 L841.7177 587.4705 Z" stroke-width="2" clip-path="url(#clipPath2)" stroke="none"/>
      <rect x="862.3613" y="472.1797" clip-path="url(#clipPath2)" fill="white" width="75.9629" height="15.6406" stroke="none" stroke-width="2"/>
      <text x="864.3613" font-size="10px" y="483.4619" clip-path="url(#clipPath2)" font-family="sans-serif" stroke="none" xml:space="preserve">fragment data</text>
      <path fill="none" stroke-dasharray="6,2" d="M1008.9677 514 L1008.9677 592.9575" clip-path="url(#clipPath2)" stroke="blue"/>
      <path fill="blue" stroke-dasharray="6,2" d="M1008.9677 600.9575 L1013.9677 588.9575 L1008.9677 591.9575 L1003.9677 588.9575 Z" clip-path="url(#clipPath2)" stroke="none"/>
      <path fill="none" d="M1055.4214 392 L1226.3616 392" clip-path="url(#clipPath2)"/>
      <path d="M1234.3616 392 L1222.3616 387 L1225.3616 392 L1222.3616 397 Z" clip-path="url(#clipPath2)" stroke="none"/>
      <rect x="1107.5873" y="384.1797" clip-path="url(#clipPath2)" fill="white" width="74.6982" height="15.6406" stroke="none"/>
      <text x="1109.5873" font-size="10px" y="395.4619" clip-path="url(#clipPath2)" font-family="sans-serif" stroke="none" xml:space="preserve">frame context</text>
      <path fill="none" d="M1055.4849 427 L1226.4052 427" clip-path="url(#clipPath2)"/>
      <path d="M1234.4052 427 L1222.4052 422 L1225.4052 427 L1222.4052 432 Z" clip-path="url(#clipPath2)" stroke="none"/>
      <rect x="1115.2582" y="419.1797" clip-path="url(#clipPath2)" fill="white" width="59.3564" height="15.6406" stroke="none"/>
      <text x="1117.2582" font-size="10px" y="430.4619" clip-path="url(#clipPath2)" font-family="sans-serif" stroke="none" xml:space="preserve">frame data</text>
      <path fill="none" stroke-dasharray="12,4" d="M550.4677 420.5 L694.4929 420.5" stroke-width="2" clip-path="url(#clipPath2)"/>
      <path stroke-dasharray="12,4" d="M703.4929 420.5 L689.9929 414.875 L693.3679 420.5 L689.9929 426.125 Z" stroke-width="2" clip-path="url(#clipPath2)" stroke="none"/>
      <text x="562.5927" y="413.6699" clip-path="url(#clipPath2)" font-family="sans-serif" stroke="none" font-weight="bold" xml:space="preserve">descriptor_in_if</text>
      <path fill="none" stroke-dasharray="12,4" d="M796.5302 420.5 L953.4272 420.5" stroke-width="2" clip-path="url(#clipPath2)"/>
      <path stroke-dasharray="12,4" d="M962.4272 420.5 L948.9272 414.875 L952.3022 420.5 L948.9272 426.125 Z" stroke-width="2" clip-path="url(#clipPath2)" stroke="none"/>
      <text x="822.8183" y="413.6699" clip-path="url(#clipPath2)" font-family="sans-serif" stroke="none" font-weight="bold" xml:space="preserve">descriptor_out_if</text>
      <path fill="none" stroke-dasharray="6,2" d="M749.981 449 L749.7469 601" clip-path="url(#clipPath2)"/>
    </g>
  </g>
</svg>
